<?xml version="1.0" encoding="iso-8859-1"?>
<!-- Generator: Adobe Illustrator 16.0.0, SVG Export Plug-In . SVG Version: 6.00 Build 0)  -->
<!DOCTYPE svg PUBLIC "-//W3C//DTD SVG 1.1//EN" "http://www.w3.org/Graphics/SVG/1.1/DTD/svg11.dtd">
<svg version="1.1" id="Capa_1" xmlns="http://www.w3.org/2000/svg" xmlns:xlink="http://www.w3.org/1999/xlink" x="0px" y="0px"
	 width="665.285px" height="665.285px" viewBox="0 0 665.285 665.285" style="enable-background:new 0 0 665.285 665.285;"
	 xml:space="preserve">
<g>
	<g>
		<path d="M332.603,349.763c30.396,0,53.653-24.762,53.653-55.201V55.129C386.256,24.732,362.999,0,332.603,0
			c-30.404,0-53.661,24.732-53.661,55.129v239.433C278.941,325,302.202,349.763,332.603,349.763z M294.272,55.129
			c0-21.946,16.385-39.798,38.331-39.798c21.945,0,38.322,17.853,38.322,39.798v239.433c0,21.984-16.377,39.871-38.322,39.871
			c-21.95,0-38.331-17.887-38.331-39.871V55.129z"/>
		<path d="M431.454,69.708c-2.334-0.797-5.201-0.417-7.217,1.023c-2.009,1.441-3.488,3.76-3.488,6.232v97.027
			c0,2.859,1.87,5.477,4.404,6.795c66.803,34.82,108.44,103.221,108.44,178.509c0,110.932-90.144,201.183-201.03,201.183
			c-110.978,0-201.229-90.251-201.229-201.183c0-75.266,41.833-143.663,108.69-178.509c2.53-1.318,4.427-3.94,4.427-6.795V76.963
			c0-2.472-1.479-4.791-3.492-6.232c-2.008-1.438-4.745-1.82-7.075-1.023C109.968,111.898,26.643,228.272,26.643,359.295
			c0,168.725,137.266,305.99,306.029,305.99c168.72,0,305.971-137.266,305.971-305.99
			C638.643,228.272,555.371,111.894,431.454,69.708z M332.637,649.955c-160.312,0-290.449-130.391-290.449-290.66
			c0-120.847,75.783-228.579,186.929-271.413v81.517c-68.987,38.124-112.791,110.457-112.791,189.896
			c0,119.387,97.02,216.514,216.453,216.514c119.34,0,216.076-97.127,216.076-216.514c0-79.462-43.788-151.792-112.775-189.896
			v-81.52c111.146,42.833,186.929,150.565,186.929,271.412C623.01,519.564,492.906,649.955,332.637,649.955z"/>
	</g>
</g>
<g>
</g>
<g>
</g>
<g>
</g>
<g>
</g>
<g>
</g>
<g>
</g>
<g>
</g>
<g>
</g>
<g>
</g>
<g>
</g>
<g>
</g>
<g>
</g>
<g>
</g>
<g>
</g>
<g>
</g>
</svg>
